<svg id="Layer_1" data-name="Layer 1" xmlns="http://www.w3.org/2000/svg" viewBox="0 0 320 320"><defs><style>.cls-1{fill:#588fcb;}.cls-2{fill:#fff;}</style></defs><title>Covid_Icon</title><circle class="cls-1" cx="160" cy="160" r="160"/><path class="cls-2" d="M254.59,80.79,163.85,41.05a8.84,8.84,0,0,0-7.11,0L66,80.79a9.79,9.79,0,0,0-5.71,9v48.31c0,66.51,38.12,126.34,96.51,151.47a8.76,8.76,0,0,0,7,0c58.39-25.13,96.5-85,96.5-151.47V89.8A9.78,9.78,0,0,0,254.59,80.79Zm-94.3-20.15,81.49,35.68v41.79c0,56.54-31.49,108.59-81.49,131.82"/></svg>